<svg viewBox="0 0 64 64" xmlns="http://www.w3.org/2000/svg"><path d="m7 5v2" fill="none" stroke="#000" stroke-linecap="round" stroke-linejoin="round" stroke-width="2"/><path d="m7 11v2" fill="none" stroke="#000" stroke-linecap="round" stroke-linejoin="round" stroke-width="2"/><path d="m3 9h2" fill="none" stroke="#000" stroke-linecap="round" stroke-linejoin="round" stroke-width="2"/><path d="m9 9h2" fill="none" stroke="#000" stroke-linecap="round" stroke-linejoin="round" stroke-width="2"/><circle cx="45.5" cy="10.5" fill="none" r="2.5" stroke="#000" stroke-linecap="round" stroke-linejoin="round" stroke-width="2"/><path d="m20.651 14.1a1.069 1.069 0 1 1 -1.069-1.069 1.069 1.069 0 0 1 1.069 1.069z"/><path d="m60.651 16.1a1.069 1.069 0 1 1 -1.069-1.069 1.069 1.069 0 0 1 1.069 1.069z"/><g fill="none" stroke="#000" stroke-linejoin="round" stroke-width="2"><path d="m35.824 52.955-4.749 4.745a5.5 5.5 0 0 1 -7.778 0 5.5 5.5 0 0 1 0-7.778l22.628-22.622a5.5 5.5 0 0 1 7.778 0 5.5 5.5 0 0 1 0 7.778l-8.018 8.018" stroke-linecap="round"/><path d="m14 48.855v10.145" stroke-linecap="round"/><path d="m10 60h8" stroke-linecap="round"/><path d="m4.354 34.832c-2.162 6.268 2.084 13.125 8.7 13.556q.359.024.725.024a10.894 10.894 0 0 0 4.127-.8 10.125 10.125 0 0 0 5.717-12.1l-2.281-8.512h-14.369z" stroke-linecap="round"/><path d="m23.457 34.9a32.808 32.808 0 0 0 -8.165 3.679c-5.088 2.968-8.986 2.132-11.431.826"/><path d="m42.371 30.851 6.629.149" stroke-linecap="round"/><path d="m35.371 37.851 6.629.149" stroke-linecap="round"/><path d="m28.371 44.851 5.629.074" stroke-linecap="round"/><path d="m23.004 50.865 5.996.135" stroke-linecap="round"/><path d="m36 48 6-6 15 6v11h-21z" stroke-linecap="round"/><path d="m36 48h9v5.5a1.5 1.5 0 0 0 3 0v-3a1.5 1.5 0 0 0 3 0v-2.5h6"/></g></svg>