<svg width="163" height="64" viewBox="0 0 163 64" fill="none" xmlns="http://www.w3.org/2000/svg">
<g filter="url(#filter0_d_159_51)">
<path d="M11.2336 46C9.68693 46 8.31359 45.64 7.11359 44.92C5.94026 44.1733 5.02026 43.2 4.35359 42C3.68693 40.8 3.35359 39.4933 3.35359 38.08C3.35359 36.8 3.64693 35.6 4.23359 34.48C4.84693 33.36 5.72693 32.48 6.87359 31.84C5.75359 31.12 4.90026 30.2267 4.31359 29.16C3.72693 28.0933 3.43359 26.9733 3.43359 25.8C3.43359 24.36 3.76693 23.0533 4.43359 21.88C5.12693 20.7067 6.06026 19.7733 7.23359 19.08C8.40693 18.36 9.70026 18 11.1136 18H22.1936V21.4H11.5536C10.7269 21.4 9.99359 21.6 9.35359 22C8.71359 22.4 8.20693 22.9333 7.83359 23.6C7.46026 24.24 7.27359 24.9733 7.27359 25.8C7.27359 26.5733 7.46026 27.28 7.83359 27.92C8.23359 28.56 8.76693 29.08 9.43359 29.48C10.1003 29.8533 10.8336 30.04 11.6336 30.04H20.7136V33.44H11.9136C10.9269 33.44 10.0736 33.6667 9.35359 34.12C8.66026 34.5467 8.11359 35.12 7.71359 35.84C7.34026 36.5333 7.15359 37.28 7.15359 38.08C7.15359 38.88 7.34026 39.6267 7.71359 40.32C8.08693 41.0133 8.62026 41.5733 9.31359 42C10.0069 42.4 10.8203 42.6 11.7536 42.6H22.1936V46H11.2336ZM69.0764 46V25.28C69.0764 23.8667 69.3964 22.6133 70.0364 21.52C70.6764 20.4267 71.5431 19.5733 72.6364 18.96C73.7297 18.32 74.9697 18 76.3564 18H86.3164V21.4H76.7964C75.6231 21.4 74.6764 21.7733 73.9564 22.52C73.2631 23.24 72.9164 24.16 72.9164 25.28V30.96H84.8364V34.36H72.9164V46H69.0764ZM99.4614 46.48C97.3814 46.48 95.5414 46.0133 93.9414 45.08C92.3414 44.12 91.0747 42.84 90.1414 41.24C89.2081 39.6133 88.7414 37.8 88.7414 35.8C88.7414 33.8 89.2081 32 90.1414 30.4C91.0747 28.7733 92.3414 27.4933 93.9414 26.56C95.5414 25.6 97.3814 25.12 99.4614 25.12C101.541 25.12 103.381 25.6 104.981 26.56C106.608 27.4933 107.875 28.76 108.781 30.36C109.715 31.96 110.181 33.7733 110.181 35.8C110.181 37.8 109.715 39.6133 108.781 41.24C107.875 42.84 106.608 44.12 104.981 45.08C103.381 46.0133 101.541 46.48 99.4614 46.48ZM99.4614 43.32C100.875 43.32 102.101 42.9867 103.141 42.32C104.181 41.6533 104.995 40.76 105.581 39.64C106.168 38.4933 106.461 37.2133 106.461 35.8C106.461 34.3867 106.168 33.12 105.581 32C104.995 30.8533 104.181 29.9467 103.141 29.28C102.101 28.6133 100.875 28.28 99.4614 28.28C98.0747 28.28 96.8481 28.6133 95.7814 29.28C94.7414 29.9467 93.9281 30.8533 93.3414 32C92.7547 33.12 92.4614 34.3867 92.4614 35.8C92.4614 37.2133 92.7547 38.4933 93.3414 39.64C93.9281 40.76 94.7414 41.6533 95.7814 42.32C96.8481 42.9867 98.0747 43.32 99.4614 43.32ZM124.5 46.48C122.42 46.48 120.58 46.0133 118.98 45.08C117.38 44.12 116.114 42.84 115.18 41.24C114.247 39.6133 113.78 37.8 113.78 35.8C113.78 33.8 114.247 32 115.18 30.4C116.114 28.7733 117.38 27.4933 118.98 26.56C120.58 25.6 122.42 25.12 124.5 25.12C126.58 25.12 128.42 25.6 130.02 26.56C131.647 27.4933 132.914 28.76 133.82 30.36C134.754 31.96 135.22 33.7733 135.22 35.8C135.22 37.8 134.754 39.6133 133.82 41.24C132.914 42.84 131.647 44.12 130.02 45.08C128.42 46.0133 126.58 46.48 124.5 46.48ZM124.5 43.32C125.914 43.32 127.14 42.9867 128.18 42.32C129.22 41.6533 130.034 40.76 130.62 39.64C131.207 38.4933 131.5 37.2133 131.5 35.8C131.5 34.3867 131.207 33.12 130.62 32C130.034 30.8533 129.22 29.9467 128.18 29.28C127.14 28.6133 125.914 28.28 124.5 28.28C123.114 28.28 121.887 28.6133 120.82 29.28C119.78 29.9467 118.967 30.8533 118.38 32C117.794 33.12 117.5 34.3867 117.5 35.8C117.5 37.2133 117.794 38.4933 118.38 39.64C118.967 40.76 119.78 41.6533 120.82 42.32C121.887 42.9867 123.114 43.32 124.5 43.32ZM149.34 46.48C147.793 46.48 146.38 46.24 145.1 45.76C143.82 45.2533 142.713 44.52 141.78 43.56C140.846 42.6 140.113 41.4533 139.58 40.12C139.073 38.76 138.82 37.24 138.82 35.56C138.82 33.4267 139.246 31.5867 140.1 30.04C140.98 28.4667 142.166 27.2533 143.66 26.4C145.18 25.5467 146.873 25.12 148.74 25.12C149.78 25.12 150.766 25.2933 151.7 25.64C152.66 25.9867 153.513 26.4667 154.26 27.08C155.006 27.6933 155.593 28.4133 156.02 29.24H156.1V16.8H159.78V35.68C159.78 37.9467 159.313 39.8933 158.38 41.52C157.473 43.12 156.233 44.3467 154.66 45.2C153.113 46.0533 151.34 46.48 149.34 46.48ZM149.34 43.32C150.593 43.32 151.726 43.0133 152.74 42.4C153.753 41.7867 154.553 40.92 155.14 39.8C155.753 38.68 156.06 37.36 156.06 35.84C156.06 34.2933 155.753 32.96 155.14 31.84C154.553 30.6933 153.753 29.8133 152.74 29.2C151.726 28.5867 150.58 28.28 149.3 28.28C148.046 28.28 146.9 28.6 145.86 29.24C144.846 29.88 144.033 30.76 143.42 31.88C142.833 33 142.54 34.3067 142.54 35.8C142.54 37.3467 142.846 38.68 143.46 39.8C144.073 40.92 144.886 41.7867 145.9 42.4C146.94 43.0133 148.086 43.32 149.34 43.32Z" fill="#F58220" shape-rendering="crispEdges"/>
<path d="M7.11359 44.92L6.84506 45.342L6.85635 45.3487L7.11359 44.92ZM4.35359 42L4.79067 41.7572L4.35359 42ZM4.23359 34.48L3.79497 34.2398L3.79068 34.248L4.23359 34.48ZM6.87359 31.84L7.11728 32.2766C7.27067 32.191 7.36788 32.0311 7.37335 31.8556C7.37882 31.68 7.29174 31.5144 7.14397 31.4194L6.87359 31.84ZM4.31359 29.16L4.7517 28.919L4.31359 29.16ZM4.43359 21.88L4.00307 21.6256L3.99887 21.633L4.43359 21.88ZM7.23359 19.08L7.48799 19.5105L7.4951 19.5062L7.23359 19.08ZM22.1936 18H22.6936C22.6936 17.7239 22.4697 17.5 22.1936 17.5V18ZM22.1936 21.4V21.9C22.4697 21.9 22.6936 21.6761 22.6936 21.4H22.1936ZM7.83359 23.6L8.26555 23.852L8.26985 23.8443L7.83359 23.6ZM7.83359 27.92L7.4017 28.1719C7.40427 28.1763 7.4069 28.1807 7.4096 28.185L7.83359 27.92ZM9.43359 29.48L9.17635 29.9087C9.18062 29.9113 9.18494 29.9138 9.18929 29.9163L9.43359 29.48ZM20.7136 30.04H21.2136C21.2136 29.7639 20.9897 29.54 20.7136 29.54V30.04ZM20.7136 33.44V33.94C20.9897 33.94 21.2136 33.7161 21.2136 33.44H20.7136ZM9.35359 34.12L9.61566 34.5459L9.62 34.5431L9.35359 34.12ZM7.71359 35.84L7.27648 35.5972L7.27336 35.603L7.71359 35.84ZM7.71359 40.32L7.27336 40.557L7.71359 40.32ZM9.31359 42L9.05155 42.4258C9.05557 42.4283 9.05964 42.4307 9.06373 42.4331L9.31359 42ZM22.1936 42.6H22.6936C22.6936 42.3239 22.4697 42.1 22.1936 42.1V42.6ZM22.1936 46V46.5C22.4697 46.5 22.6936 46.2761 22.6936 46H22.1936ZM11.2336 45.5C9.76773 45.5 8.48513 45.1598 7.37084 44.4913L6.85635 45.3487C8.14206 46.1202 9.60612 46.5 11.2336 46.5V45.5ZM7.38203 44.4982C6.27798 43.7956 5.41636 42.8834 4.79067 41.7572L3.91652 42.2428C4.62417 43.5166 5.60254 44.5511 6.84516 45.3418L7.38203 44.4982ZM4.79067 41.7572C4.16653 40.6337 3.85359 39.411 3.85359 38.08H2.85359C2.85359 39.5757 3.20733 40.9663 3.91652 42.2428L4.79067 41.7572ZM3.85359 38.08C3.85359 36.8798 4.12782 35.7595 4.67651 34.712L3.79068 34.248C3.16603 35.4405 2.85359 36.7202 2.85359 38.08H3.85359ZM4.67214 34.7202C5.23896 33.6851 6.05029 32.8721 7.11728 32.2766L6.62991 31.4034C5.40356 32.0879 4.45489 33.0349 3.79505 34.2398L4.67214 34.7202ZM7.14397 31.4194C6.08724 30.7401 5.2946 29.9061 4.7517 28.919L3.87549 29.401C4.50592 30.5472 5.41994 31.4999 6.60322 32.2606L7.14397 31.4194ZM4.7517 28.919C4.20405 27.9233 3.93359 26.8859 3.93359 25.8H2.93359C2.93359 27.0608 3.2498 28.2633 3.87549 29.401L4.7517 28.919ZM3.93359 25.8C3.93359 24.4406 4.24731 23.22 4.86832 22.127L3.99887 21.633C3.28655 22.8867 2.93359 24.2794 2.93359 25.8H3.93359ZM4.86406 22.1344C5.51448 21.0336 6.38724 20.1609 7.48796 19.5105L6.97923 18.6495C5.73328 19.3858 4.73937 20.3797 4.00313 21.6256L4.86406 22.1344ZM7.4951 19.5062C8.58758 18.8358 9.78998 18.5 11.1136 18.5V17.5C9.61054 17.5 8.22628 17.8842 6.97209 18.6538L7.4951 19.5062ZM11.1136 18.5H22.1936V17.5H11.1136V18.5ZM21.6936 18V21.4H22.6936V18H21.6936ZM22.1936 20.9H11.5536V21.9H22.1936V20.9ZM11.5536 20.9C10.6425 20.9 9.81556 21.1216 9.0886 21.576L9.61859 22.424C10.1716 22.0784 10.8114 21.9 11.5536 21.9V20.9ZM9.0886 21.576C8.37639 22.0211 7.81121 22.6166 7.39734 23.3557L8.26985 23.8443C8.60264 23.25 9.0508 22.7789 9.61859 22.424L9.0886 21.576ZM7.4017 23.3481C6.97876 24.0731 6.77359 24.8953 6.77359 25.8H7.77359C7.77359 25.0514 7.94176 24.4069 8.26548 23.8519L7.4017 23.3481ZM6.77359 25.8C6.77359 26.6578 6.98177 27.4521 7.4017 28.1719L8.26548 27.6681C7.93875 27.1079 7.77359 26.4888 7.77359 25.8H6.77359ZM7.4096 28.185C7.85275 28.894 8.44405 29.4694 9.17635 29.9087L9.69084 29.0513C9.0898 28.6906 8.61444 28.226 8.25759 27.655L7.4096 28.185ZM9.18929 29.9163C9.93416 30.3334 10.7522 30.54 11.6336 30.54V29.54C10.915 29.54 10.2664 29.3733 9.6779 29.0437L9.18929 29.9163ZM11.6336 30.54H20.7136V29.54H11.6336V30.54ZM20.2136 30.04V33.44H21.2136V30.04H20.2136ZM20.7136 32.94H11.9136V33.94H20.7136V32.94ZM11.9136 32.94C10.848 32.94 9.89903 33.1857 9.08719 33.6969L9.62 34.5431C10.2482 34.1476 11.0059 33.94 11.9136 33.94V32.94ZM9.09155 33.6942C8.32424 34.1664 7.71768 34.8031 7.27652 35.5972L8.15067 36.0828C8.50951 35.4369 8.99628 34.927 9.61564 34.5458L9.09155 33.6942ZM7.27336 35.603C6.86015 36.3703 6.65359 37.1986 6.65359 38.08H7.65359C7.65359 37.3614 7.82037 36.6963 8.15383 36.077L7.27336 35.603ZM6.65359 38.08C6.65359 38.9614 6.86015 39.7897 7.27336 40.557L8.15383 40.083C7.82037 39.4637 7.65359 38.7986 7.65359 38.08H6.65359ZM7.27336 40.557C7.68988 41.3306 8.28588 41.9547 9.05155 42.4258L9.57564 41.5742C8.95464 41.192 8.48397 40.6961 8.15383 40.083L7.27336 40.557ZM9.06373 42.4331C9.84484 42.8837 10.7473 43.1 11.7536 43.1V42.1C10.8933 42.1 10.169 41.9163 9.56346 41.5669L9.06373 42.4331ZM11.7536 43.1H22.1936V42.1H11.7536V43.1ZM21.6936 42.6V46H22.6936V42.6H21.6936ZM22.1936 45.5H11.2336V46.5H22.1936V45.5ZM69.0764 46H68.5764C68.5764 46.2761 68.8003 46.5 69.0764 46.5V46ZM70.0364 21.52L69.6049 21.2674L70.0364 21.52ZM72.6364 18.96L72.8811 19.3961L72.889 19.3915L72.6364 18.96ZM86.3164 18H86.8164C86.8164 17.7239 86.5926 17.5 86.3164 17.5V18ZM86.3164 21.4V21.9C86.5926 21.9 86.8164 21.6761 86.8164 21.4H86.3164ZM73.9564 22.52L73.5965 22.1729L73.5962 22.1732L73.9564 22.52ZM72.9164 30.96H72.4164C72.4164 31.2361 72.6403 31.46 72.9164 31.46V30.96ZM84.8364 30.96H85.3364C85.3364 30.6839 85.1125 30.46 84.8364 30.46V30.96ZM84.8364 34.36V34.86C85.1125 34.86 85.3364 34.6361 85.3364 34.36H84.8364ZM72.9164 34.36V33.86C72.6403 33.86 72.4164 34.0839 72.4164 34.36H72.9164ZM72.9164 46V46.5C73.1926 46.5 73.4164 46.2761 73.4164 46H72.9164ZM69.5764 46V25.28H68.5764V46H69.5764ZM69.5764 25.28C69.5764 23.9449 69.8778 22.7807 70.4679 21.7726L69.6049 21.2674C68.915 22.446 68.5764 23.7884 68.5764 25.28H69.5764ZM70.4679 21.7726C71.0635 20.7551 71.866 19.9655 72.881 19.3961L72.3918 18.5239C71.2201 19.1812 70.2893 20.0982 69.6049 21.2674L70.4679 21.7726ZM72.889 19.3915C73.8986 18.8005 75.0499 18.5 76.3564 18.5V17.5C74.8896 17.5 73.5609 17.8395 72.3838 18.5285L72.889 19.3915ZM76.3564 18.5H86.3164V17.5H76.3564V18.5ZM85.8164 18V21.4H86.8164V18H85.8164ZM86.3164 20.9H76.7964V21.9H86.3164V20.9ZM76.7964 20.9C75.5068 20.9 74.4235 21.3153 73.5965 22.1729L74.3163 22.8671C74.9294 22.2313 75.7393 21.9 76.7964 21.9V20.9ZM73.5962 22.1732C72.8021 22.9979 72.4164 24.0476 72.4164 25.28H73.4164C73.4164 24.2724 73.724 23.4821 74.3166 22.8668L73.5962 22.1732ZM72.4164 25.28V30.96H73.4164V25.28H72.4164ZM72.9164 31.46H84.8364V30.46H72.9164V31.46ZM84.3364 30.96V34.36H85.3364V30.96H84.3364ZM84.8364 33.86H72.9164V34.86H84.8364V33.86ZM72.4164 34.36V46H73.4164V34.36H72.4164ZM72.9164 45.5H69.0764V46.5H72.9164V45.5ZM93.9414 45.08L93.6841 45.5088L93.6895 45.5119L93.9414 45.08ZM90.1414 41.24L89.7077 41.4888L89.7095 41.4919L90.1414 41.24ZM90.1414 30.4L90.5733 30.6519L90.5751 30.6488L90.1414 30.4ZM93.9414 26.56L94.1934 26.9919L94.1987 26.9887L93.9414 26.56ZM104.981 26.56L104.724 26.9888L104.733 26.9937L104.981 26.56ZM108.781 30.36L108.346 30.6065L108.35 30.6119L108.781 30.36ZM108.781 41.24L108.348 40.9912L108.346 40.9935L108.781 41.24ZM104.981 45.08L105.233 45.5119L105.236 45.5106L104.981 45.08ZM103.141 42.32L102.872 41.8991L103.141 42.32ZM105.581 39.64L106.024 39.872L106.027 39.8677L105.581 39.64ZM105.581 32L105.136 32.2277L105.138 32.232L105.581 32ZM95.7814 29.28L95.5164 28.856L95.5116 28.8591L95.7814 29.28ZM93.3414 32L93.7843 32.232L93.7865 32.2277L93.3414 32ZM93.3414 39.64L92.8963 39.8677L92.8985 39.872L93.3414 39.64ZM95.7814 42.32L95.5116 42.741L95.5164 42.744L95.7814 42.32ZM99.4614 45.98C97.4588 45.98 95.7078 45.5315 94.1933 44.6481L93.6895 45.5119C95.375 46.4951 97.304 46.98 99.4614 46.98V45.98ZM94.1987 44.6513C92.6703 43.7342 91.4639 42.5148 90.5733 40.9881L89.7095 41.4919C90.6856 43.1652 92.0125 44.5058 93.6842 45.5087L94.1987 44.6513ZM90.5751 40.9912C89.6881 39.4453 89.2414 37.7187 89.2414 35.8H88.2414C88.2414 37.8813 88.728 39.7814 89.7077 41.4888L90.5751 40.9912ZM89.2414 35.8C89.2414 33.8812 89.6881 32.1694 90.5733 30.6519L89.7095 30.1481C88.728 31.8306 88.2414 33.7188 88.2414 35.8H89.2414ZM90.5751 30.6488C91.4655 29.097 92.6699 27.8806 94.1933 26.9919L93.6895 26.1281C92.0129 27.1061 90.684 28.4496 89.7077 30.1512L90.5751 30.6488ZM94.1987 26.9887C95.7123 26.0806 97.4613 25.62 99.4614 25.62V24.62C97.3015 24.62 95.3705 25.1194 93.6842 26.1313L94.1987 26.9887ZM99.4614 25.62C101.461 25.62 103.211 26.0806 104.724 26.9887L105.239 26.1313C103.552 25.1194 101.621 24.62 99.4614 24.62V25.62ZM104.733 26.9937C106.283 27.8834 107.485 29.0861 108.346 30.6065L109.216 30.1135C108.265 28.4339 106.933 27.1033 105.23 26.1263L104.733 26.9937ZM108.35 30.6119C109.234 32.1284 109.681 33.8533 109.681 35.8H110.681C110.681 33.6934 110.195 31.7916 109.213 30.1081L108.35 30.6119ZM109.681 35.8C109.681 37.7187 109.235 39.4453 108.348 40.9912L109.215 41.4888C110.195 39.7814 110.681 37.8813 110.681 35.8H109.681ZM108.346 40.9935C107.484 42.5152 106.281 43.7326 104.727 44.6494L105.236 45.5106C106.935 44.5074 108.265 43.1648 109.216 41.4865L108.346 40.9935ZM104.729 44.6481C103.215 45.5315 101.464 45.98 99.4614 45.98V46.98C101.619 46.98 103.548 46.4951 105.233 45.5119L104.729 44.6481ZM99.4614 43.82C100.956 43.82 102.28 43.4664 103.411 42.7409L102.872 41.8991C101.923 42.507 100.793 42.82 99.4614 42.82V43.82ZM103.411 42.7409C104.526 42.0263 105.398 41.0671 106.024 39.872L105.138 39.408C104.591 40.4529 103.837 41.2804 102.872 41.8991L103.411 42.7409ZM106.027 39.8677C106.653 38.6439 106.961 37.2847 106.961 35.8H105.961C105.961 37.142 105.683 38.3428 105.136 39.4123L106.027 39.8677ZM106.961 35.8C106.961 34.3155 106.653 32.9677 106.024 31.768L105.138 32.232C105.683 33.2723 105.961 34.4578 105.961 35.8H106.961ZM106.027 31.7723C105.401 30.5503 104.529 29.5756 103.411 28.8591L102.872 29.7009C103.834 30.3178 104.588 31.1563 105.136 32.2277L106.027 31.7723ZM103.411 28.8591C102.28 28.1336 100.956 27.78 99.4614 27.78V28.78C100.793 28.78 101.923 29.093 102.872 29.7009L103.411 28.8591ZM99.4614 27.78C97.991 27.78 96.6706 28.1347 95.5164 28.856L96.0464 29.704C97.0256 29.092 98.1585 28.78 99.4614 28.78V27.78ZM95.5116 28.8591C94.3938 29.5756 93.5215 30.5503 92.8963 31.7723L93.7865 32.2277C94.3347 31.1563 95.089 30.3178 96.0512 29.7009L95.5116 28.8591ZM92.8985 31.768C92.2701 32.9677 91.9614 34.3155 91.9614 35.8H92.9614C92.9614 34.4578 93.2394 33.2723 93.7843 32.232L92.8985 31.768ZM91.9614 35.8C91.9614 37.2847 92.2701 38.6439 92.8963 39.8677L93.7865 39.4123C93.2393 38.3428 92.9614 37.142 92.9614 35.8H91.9614ZM92.8985 39.872C93.5245 41.0671 94.3967 42.0263 95.5116 42.7409L96.0512 41.8991C95.0861 41.2804 94.3317 40.4529 93.7843 39.408L92.8985 39.872ZM95.5164 42.744C96.6706 43.4653 97.991 43.82 99.4614 43.82V42.82C98.1585 42.82 97.0256 42.508 96.0464 41.896L95.5164 42.744ZM118.98 45.08L118.723 45.5088L118.729 45.5119L118.98 45.08ZM115.18 41.24L114.747 41.4888L114.749 41.4919L115.18 41.24ZM115.18 30.4L115.612 30.6519L115.614 30.6488L115.18 30.4ZM118.98 26.56L119.232 26.9919L119.238 26.9887L118.98 26.56ZM130.02 26.56L129.763 26.9888L129.772 26.9937L130.02 26.56ZM133.82 30.36L133.385 30.6065L133.389 30.6119L133.82 30.36ZM133.82 41.24L133.387 40.9912L133.385 40.9935L133.82 41.24ZM130.02 45.08L130.272 45.5119L130.275 45.5106L130.02 45.08ZM128.18 42.32L127.911 41.8991L128.18 42.32ZM130.62 39.64L131.063 39.872L131.066 39.8677L130.62 39.64ZM130.62 32L130.175 32.2277L130.178 32.232L130.62 32ZM120.82 29.28L120.555 28.856L120.551 28.8591L120.82 29.28ZM118.38 32L118.823 32.232L118.826 32.2277L118.38 32ZM118.38 39.64L117.935 39.8677L117.938 39.872L118.38 39.64ZM120.82 42.32L120.551 42.741L120.555 42.744L120.82 42.32ZM124.5 45.98C122.498 45.98 120.747 45.5315 119.232 44.6481L118.729 45.5119C120.414 46.4951 122.343 46.98 124.5 46.98V45.98ZM119.238 44.6513C117.709 43.7342 116.503 42.5148 115.612 40.9881L114.749 41.4919C115.725 43.1652 117.052 44.5058 118.723 45.5087L119.238 44.6513ZM115.614 40.9912C114.727 39.4453 114.28 37.7187 114.28 35.8H113.28C113.28 37.8813 113.767 39.7814 114.747 41.4888L115.614 40.9912ZM114.28 35.8C114.28 33.8812 114.727 32.1694 115.612 30.6519L114.749 30.1481C113.767 31.8306 113.28 33.7188 113.28 35.8H114.28ZM115.614 30.6488C116.505 29.097 117.709 27.8806 119.232 26.9919L118.729 26.1281C117.052 27.1061 115.723 28.4496 114.747 30.1512L115.614 30.6488ZM119.238 26.9887C120.751 26.0806 122.5 25.62 124.5 25.62V24.62C122.341 24.62 120.41 25.1194 118.723 26.1313L119.238 26.9887ZM124.5 25.62C126.501 25.62 128.25 26.0806 129.763 26.9887L130.278 26.1313C128.591 25.1194 126.66 24.62 124.5 24.62V25.62ZM129.772 26.9937C131.322 27.8834 132.524 29.0861 133.385 30.6065L134.255 30.1135C133.304 28.4339 131.972 27.1033 130.269 26.1263L129.772 26.9937ZM133.389 30.6119C134.273 32.1284 134.72 33.8533 134.72 35.8H135.72C135.72 33.6934 135.234 31.7916 134.252 30.1081L133.389 30.6119ZM134.72 35.8C134.72 37.7187 134.274 39.4453 133.387 40.9912L134.254 41.4888C135.234 39.7814 135.72 37.8813 135.72 35.8H134.72ZM133.385 40.9935C132.523 42.5152 131.32 43.7326 129.766 44.6494L130.275 45.5106C131.975 44.5074 133.304 43.1648 134.255 41.4865L133.385 40.9935ZM129.769 44.6481C128.254 45.5315 126.503 45.98 124.5 45.98V46.98C126.658 46.98 128.587 46.4951 130.272 45.5119L129.769 44.6481ZM124.5 43.82C125.995 43.82 127.319 43.4664 128.45 42.7409L127.911 41.8991C126.962 42.507 125.832 42.82 124.5 42.82V43.82ZM128.45 42.7409C129.565 42.0263 130.437 41.0671 131.063 39.872L130.178 39.408C129.63 40.4529 128.876 41.2804 127.911 41.8991L128.45 42.7409ZM131.066 39.8677C131.692 38.6439 132 37.2847 132 35.8H131C131 37.142 130.723 38.3428 130.175 39.4123L131.066 39.8677ZM132 35.8C132 34.3155 131.692 32.9677 131.063 31.768L130.178 32.232C130.722 33.2723 131 34.4578 131 35.8H132ZM131.066 31.7723C130.44 30.5503 129.568 29.5756 128.45 28.8591L127.911 29.7009C128.873 30.3178 129.627 31.1563 130.175 32.2277L131.066 31.7723ZM128.45 28.8591C127.319 28.1336 125.995 27.78 124.5 27.78V28.78C125.832 28.78 126.962 29.093 127.911 29.7009L128.45 28.8591ZM124.5 27.78C123.03 27.78 121.71 28.1347 120.555 28.856L121.085 29.704C122.065 29.092 123.198 28.78 124.5 28.78V27.78ZM120.551 28.8591C119.433 29.5756 118.561 30.5503 117.935 31.7723L118.826 32.2277C119.374 31.1563 120.128 30.3178 121.09 29.7009L120.551 28.8591ZM117.938 31.768C117.309 32.9677 117 34.3155 117 35.8H118C118 34.4578 118.278 33.2723 118.823 32.232L117.938 31.768ZM117 35.8C117 37.2847 117.309 38.6439 117.935 39.8677L118.826 39.4123C118.278 38.3428 118 37.142 118 35.8H117ZM117.938 39.872C118.564 41.0671 119.436 42.0263 120.551 42.7409L121.09 41.8991C120.125 41.2804 119.371 40.4529 118.823 39.408L117.938 39.872ZM120.555 42.744C121.71 43.4653 123.03 43.82 124.5 43.82V42.82C123.198 42.82 122.065 42.508 121.085 41.896L120.555 42.744ZM145.1 45.76L144.915 46.225L144.924 46.2282L145.1 45.76ZM141.78 43.56L141.421 43.9085L141.78 43.56ZM139.58 40.12L139.111 40.2946L139.115 40.3057L139.58 40.12ZM140.1 30.04L139.663 29.7959L139.662 29.7985L140.1 30.04ZM143.66 26.4L143.415 25.964L143.411 25.9659L143.66 26.4ZM151.7 25.64L151.525 26.1087L151.53 26.1103L151.7 25.64ZM156.02 29.24L155.575 29.4693C155.661 29.6356 155.832 29.74 156.02 29.74V29.24ZM156.1 29.24V29.74C156.376 29.74 156.6 29.5161 156.6 29.24H156.1ZM156.1 16.8V16.3C155.823 16.3 155.6 16.5239 155.6 16.8H156.1ZM159.78 16.8H160.28C160.28 16.5239 160.056 16.3 159.78 16.3V16.8ZM158.38 41.52L157.946 41.2712L157.945 41.2735L158.38 41.52ZM154.66 45.2L154.421 44.7605L154.418 44.7622L154.66 45.2ZM152.74 42.4L152.481 41.9722L152.74 42.4ZM155.14 39.8L154.701 39.5598L154.697 39.568L155.14 39.8ZM155.14 31.84L154.694 32.0678L154.701 32.0802L155.14 31.84ZM152.74 29.2L152.481 29.6277L152.74 29.2ZM145.86 29.24L145.597 28.8141L145.593 28.8173L145.86 29.24ZM143.42 31.88L142.981 31.6398L142.977 31.648L143.42 31.88ZM143.46 39.8L143.021 40.0402L143.46 39.8ZM145.9 42.4L145.641 42.8278L145.646 42.8307L145.9 42.4ZM149.34 45.98C147.845 45.98 146.492 45.7482 145.275 45.2918L144.924 46.2282C146.267 46.7318 147.741 46.98 149.34 46.98V45.98ZM145.284 45.2951C144.067 44.8137 143.021 44.1193 142.138 43.2115L141.421 43.9085C142.405 44.9207 143.572 45.693 144.916 46.2249L145.284 45.2951ZM142.138 43.2115C141.253 42.3016 140.555 41.2114 140.044 39.9343L139.115 40.3057C139.671 41.6953 140.439 42.8984 141.421 43.9085L142.138 43.2115ZM140.048 39.9454C139.565 38.6493 139.32 37.1896 139.32 35.56H138.32C138.32 37.2904 138.581 38.8707 139.111 40.2946L140.048 39.9454ZM139.32 35.56C139.32 33.4937 139.732 31.7403 140.537 30.2815L139.662 29.7985C138.76 31.433 138.32 33.3596 138.32 35.56H139.32ZM140.536 30.2841C141.374 28.786 142.497 27.6402 143.908 26.8341L143.411 25.9659C141.835 26.8665 140.585 28.1473 139.663 29.7959L140.536 30.2841ZM143.904 26.836C145.344 26.0276 146.952 25.62 148.74 25.62V24.62C146.793 24.62 145.015 25.0657 143.415 25.964L143.904 26.836ZM148.74 25.62C149.723 25.62 150.65 25.7837 151.525 26.1087L151.874 25.1713C150.882 24.803 149.836 24.62 148.74 24.62V25.62ZM151.53 26.1103C152.439 26.4387 153.242 26.8912 153.942 27.4664L154.577 26.6936C153.784 26.0421 152.88 25.5346 151.869 25.1697L151.53 26.1103ZM153.942 27.4664C154.638 28.0382 155.181 28.7054 155.575 29.4693L156.464 29.0107C156.005 28.1212 155.374 27.3484 154.577 26.6936L153.942 27.4664ZM156.02 29.74H156.1V28.74H156.02V29.74ZM156.6 29.24V16.8H155.6V29.24H156.6ZM156.1 17.3H159.78V16.3H156.1V17.3ZM159.28 16.8V35.68H160.28V16.8H159.28ZM159.28 35.68C159.28 37.8775 158.827 39.7346 157.946 41.2712L158.813 41.7688C159.798 40.0521 160.28 38.0158 160.28 35.68H159.28ZM157.945 41.2735C157.083 42.7944 155.91 43.9531 154.421 44.7605L154.898 45.6395C156.556 44.7403 157.863 43.4456 158.815 41.7665L157.945 41.2735ZM154.418 44.7622C152.955 45.5696 151.266 45.98 149.34 45.98V46.98C151.413 46.98 153.271 46.5371 154.901 45.6378L154.418 44.7622ZM149.34 43.82C150.679 43.82 151.902 43.4911 152.998 42.8278L152.481 41.9722C151.55 42.5355 150.507 42.82 149.34 42.82V43.82ZM152.998 42.8278C154.095 42.164 154.956 41.2271 155.582 40.032L154.697 39.568C154.149 40.6129 153.411 41.4094 152.481 41.9722L152.998 42.8278ZM155.578 40.0402C156.239 38.8337 156.56 37.428 156.56 35.84H155.56C155.56 37.292 155.267 38.5263 154.701 39.5598L155.578 40.0402ZM156.56 35.84C156.56 34.227 156.239 32.8075 155.578 31.5998L154.701 32.0802C155.266 33.1125 155.56 34.3597 155.56 35.84H156.56ZM155.585 31.6123C154.96 30.3904 154.098 29.4378 152.998 28.7722L152.481 29.6277C153.408 30.1888 154.146 30.9962 154.694 32.0677L155.585 31.6123ZM152.998 28.7722C151.901 28.1079 150.663 27.78 149.3 27.78V28.78C150.496 28.78 151.552 29.0655 152.481 29.6277L152.998 28.7722ZM149.3 27.78C147.956 27.78 146.718 28.1243 145.597 28.8142L146.122 29.6658C147.081 29.0757 148.136 28.78 149.3 28.78V27.78ZM145.593 28.8173C144.503 29.5055 143.632 30.4504 142.981 31.6398L143.858 32.1202C144.433 31.0696 145.19 30.2545 146.127 29.6627L145.593 28.8173ZM142.977 31.648C142.346 32.8515 142.04 34.2405 142.04 35.8H143.04C143.04 34.3729 143.32 33.1485 143.862 32.112L142.977 31.648ZM142.04 35.8C142.04 37.413 142.36 38.8325 143.021 40.0402L143.898 39.5598C143.333 38.5275 143.04 37.2803 143.04 35.8H142.04ZM143.021 40.0402C143.673 41.2312 144.546 42.1653 145.641 42.8278L146.158 41.9722C145.226 41.4081 144.473 40.6088 143.898 39.5598L143.021 40.0402ZM145.646 42.8307C146.766 43.4912 148 43.82 149.34 43.82V42.82C148.172 42.82 147.114 42.5355 146.154 41.9693L145.646 42.8307Z" fill="white" fill-opacity="0.8"/>
</g>
<g filter="url(#filter1_d_159_51)">
<path d="M42.6942 31.2692L41.3478 32.6157L52.5015 43.7693L50.2708 46L39.1171 34.8464L27.9634 46L25.7326 43.7693L40.4633 29.0385C39.5365 26.7404 40.4946 23.4305 43.0209 20.9042C46.1009 17.8242 50.3456 17.0751 52.5015 19.2311C54.6575 21.3872 53.9086 25.6318 50.8284 28.7118C48.3021 31.2381 44.9923 32.1962 42.6942 31.2692ZM26.848 18.1158L37.4441 28.7118L32.9825 33.1733L26.848 27.0388C24.384 24.5747 24.384 20.5798 26.848 18.1158ZM48.5977 26.4811C50.5809 24.498 50.9898 22.1808 50.2708 21.4619C49.5519 20.7429 47.2347 21.1519 45.2516 23.1349C43.2685 25.118 42.8597 27.4352 43.5787 28.1541C44.2975 28.873 46.6146 28.4642 48.5977 26.4811Z" fill="#F58220" shape-rendering="crispEdges"/>
<path d="M42.6942 31.2692L41.3478 32.6157L52.5015 43.7693L50.2708 46L39.1171 34.8464L27.9634 46L25.7326 43.7693L40.4633 29.0385C39.5365 26.7404 40.4946 23.4305 43.0209 20.9042C46.1009 17.8242 50.3456 17.0751 52.5015 19.2311C54.6575 21.3872 53.9086 25.6318 50.8284 28.7118C48.3021 31.2381 44.9923 32.1962 42.6942 31.2692ZM26.848 18.1158L37.4441 28.7118L32.9825 33.1733L26.848 27.0388C24.384 24.5747 24.384 20.5798 26.848 18.1158ZM48.5977 26.4811C50.5809 24.498 50.9898 22.1808 50.2708 21.4619C49.5519 20.7429 47.2347 21.1519 45.2516 23.1349C43.2685 25.118 42.8597 27.4352 43.5787 28.1541C44.2975 28.873 46.6146 28.4642 48.5977 26.4811Z" stroke="white" stroke-opacity="0.8" shape-rendering="crispEdges"/>
</g>
<defs>
<filter id="filter0_d_159_51" x="0.353577" y="14.8" width="162.426" height="35.68" filterUnits="userSpaceOnUse" color-interpolation-filters="sRGB">
<feFlood flood-opacity="0" result="BackgroundImageFix"/>
<feColorMatrix in="SourceAlpha" type="matrix" values="0 0 0 0 0 0 0 0 0 0 0 0 0 0 0 0 0 0 127 0" result="hardAlpha"/>
<feOffset dy="1"/>
<feGaussianBlur stdDeviation="1.5"/>
<feComposite in2="hardAlpha" operator="out"/>
<feColorMatrix type="matrix" values="0 0 0 0 1 0 0 0 0 0.896404 0 0 0 0 0.808122 0 0 0 1 0"/>
<feBlend mode="normal" in2="BackgroundImageFix" result="effect1_dropShadow_159_51"/>
<feBlend mode="normal" in="SourceGraphic" in2="effect1_dropShadow_159_51" result="shape"/>
</filter>
<filter id="filter1_d_159_51" x="21.5" y="15.4087" width="35.7324" height="35.2984" filterUnits="userSpaceOnUse" color-interpolation-filters="sRGB">
<feFlood flood-opacity="0" result="BackgroundImageFix"/>
<feColorMatrix in="SourceAlpha" type="matrix" values="0 0 0 0 0 0 0 0 0 0 0 0 0 0 0 0 0 0 127 0" result="hardAlpha"/>
<feOffset dy="1"/>
<feGaussianBlur stdDeviation="1.5"/>
<feComposite in2="hardAlpha" operator="out"/>
<feColorMatrix type="matrix" values="0 0 0 0 1 0 0 0 0 0.896404 0 0 0 0 0.808122 0 0 0 1 0"/>
<feBlend mode="normal" in2="BackgroundImageFix" result="effect1_dropShadow_159_51"/>
<feBlend mode="normal" in="SourceGraphic" in2="effect1_dropShadow_159_51" result="shape"/>
</filter>
</defs>
</svg>
