<svg width="78" height="78" viewBox="0 0 78 78" fill="none" xmlns="http://www.w3.org/2000/svg">
<g filter="url(#filter0_d_165_33)">
<circle cx="39" cy="39" r="35" fill="white" fill-opacity="0.94" shape-rendering="crispEdges"/>
<circle cx="39" cy="39" r="34" stroke="#F58220" stroke-width="2" shape-rendering="crispEdges"/>
</g>
<g filter="url(#filter1_d_165_33)">
<path d="M22.0305 53C20.4838 53 19.1105 52.64 17.9105 51.92C16.7371 51.1733 15.8171 50.2 15.1505 49C14.4838 47.8 14.1505 46.4933 14.1505 45.08C14.1505 43.8 14.4438 42.6 15.0305 41.48C15.6438 40.36 16.5238 39.48 17.6705 38.84C16.5505 38.12 15.6971 37.2267 15.1105 36.16C14.5238 35.0933 14.2305 33.9733 14.2305 32.8C14.2305 31.36 14.5638 30.0533 15.2305 28.88C15.9238 27.7067 16.8571 26.7733 18.0305 26.08C19.2038 25.36 20.4971 25 21.9105 25H32.9905V28.4H22.3505C21.5238 28.4 20.7905 28.6 20.1505 29C19.5105 29.4 19.0038 29.9333 18.6305 30.6C18.2571 31.24 18.0705 31.9733 18.0705 32.8C18.0705 33.5733 18.2571 34.28 18.6305 34.92C19.0305 35.56 19.5638 36.08 20.2305 36.48C20.8971 36.8533 21.6305 37.04 22.4305 37.04H31.5105V40.44H22.7105C21.7238 40.44 20.8705 40.6667 20.1505 41.12C19.4571 41.5467 18.9105 42.12 18.5105 42.84C18.1371 43.5333 17.9505 44.28 17.9505 45.08C17.9505 45.88 18.1371 46.6267 18.5105 47.32C18.8838 48.0133 19.4171 48.5733 20.1105 49C20.8038 49.4 21.6171 49.6 22.5505 49.6H32.9905V53H22.0305Z" fill="#F58220" shape-rendering="crispEdges"/>
<path d="M17.9105 51.92L17.3736 52.7637C17.381 52.7684 17.3885 52.773 17.396 52.7775L17.9105 51.92ZM15.1505 49L16.0246 48.5144L16.0246 48.5144L15.1505 49ZM15.0305 41.48L14.1534 40.9997C14.1504 41.0051 14.1475 41.0105 14.1446 41.016L15.0305 41.48ZM17.6705 38.84L18.1578 39.7132C18.4646 39.542 18.659 39.2223 18.67 38.8711C18.6809 38.52 18.5068 38.1888 18.2112 37.9988L17.6705 38.84ZM15.1105 36.16L15.9867 35.6781L15.9867 35.6781L15.1105 36.16ZM15.2305 28.88L14.3695 28.3713C14.3667 28.3762 14.3638 28.3811 14.361 28.386L15.2305 28.88ZM18.0305 26.08L18.5392 26.9409C18.544 26.9381 18.5487 26.9352 18.5535 26.9323L18.0305 26.08ZM32.9905 25H33.9905C33.9905 24.4477 33.5428 24 32.9905 24V25ZM32.9905 28.4V29.4C33.5428 29.4 33.9905 28.9523 33.9905 28.4H32.9905ZM18.6305 30.6L19.4942 31.1039C19.4972 31.0988 19.5001 31.0937 19.503 31.0886L18.6305 30.6ZM18.6305 34.92L17.7667 35.4239C17.7718 35.4327 17.7771 35.4414 17.7825 35.45L18.6305 34.92ZM20.2305 36.48L19.716 37.3375C19.7245 37.3426 19.7332 37.3476 19.7419 37.3525L20.2305 36.48ZM31.5105 37.04H32.5105C32.5105 36.4877 32.0628 36.04 31.5105 36.04V37.04ZM31.5105 40.44V41.44C32.0628 41.44 32.5105 40.9923 32.5105 40.44H31.5105ZM20.1505 41.12L20.6746 41.9717L20.6833 41.9662L20.1505 41.12ZM18.5105 42.84L17.6362 42.3543L17.63 42.3659L18.5105 42.84ZM18.5105 47.32L17.63 47.7941L17.63 47.7941L18.5105 47.32ZM20.1105 49L19.5864 49.8517C19.5944 49.8566 19.6026 49.8615 19.6107 49.8662L20.1105 49ZM32.9905 49.6H33.9905C33.9905 49.0477 33.5428 48.6 32.9905 48.6V49.6ZM32.9905 53V54C33.5428 54 33.9905 53.5523 33.9905 53H32.9905ZM22.0305 52C20.6454 52 19.4535 51.6797 18.425 51.0625L17.396 52.7775C18.7674 53.6003 20.3222 54 22.0305 54V52ZM18.4473 51.0763C17.4126 50.4178 16.6093 49.5668 16.0246 48.5144L14.2763 49.4856C15.0249 50.8332 16.0617 51.9288 17.3736 52.7637L18.4473 51.0763ZM16.0246 48.5144C15.443 47.4674 15.1505 46.3286 15.1505 45.08H13.1505C13.1505 46.658 13.5246 48.1326 14.2763 49.4856L16.0246 48.5144ZM15.1505 45.08C15.1505 43.9595 15.4056 42.919 15.9163 41.944L14.1446 41.016C13.482 42.281 13.1505 43.6405 13.1505 45.08H15.1505ZM15.9076 41.9603C16.4279 41.0102 17.1705 40.2642 18.1578 39.7132L17.1831 37.9668C15.8771 38.6958 14.8597 39.7098 14.1534 40.9997L15.9076 41.9603ZM18.2112 37.9988C17.2178 37.3602 16.4858 36.5856 15.9867 35.6781L14.2343 36.6419C14.9085 37.8678 15.8832 38.8798 17.1297 39.6812L18.2112 37.9988ZM15.9867 35.6781C15.4781 34.7533 15.2305 33.7984 15.2305 32.8H13.2305C13.2305 34.1483 13.5695 35.4334 14.2343 36.6419L15.9867 35.6781ZM15.2305 32.8C15.2305 31.5212 15.5246 30.3866 16.0999 29.374L14.361 28.386C13.603 29.72 13.2305 31.1988 13.2305 32.8H15.2305ZM16.0914 29.3887C16.6989 28.3606 17.5111 27.5484 18.5392 26.9409L17.5217 25.2191C16.2032 25.9982 15.1487 27.0527 14.3695 28.3713L16.0914 29.3887ZM18.5535 26.9323C19.5651 26.3116 20.6766 26 21.9105 26V24C20.3177 24 18.8425 24.4084 17.5075 25.2277L18.5535 26.9323ZM21.9105 26H32.9905V24H21.9105V26ZM31.9905 25V28.4H33.9905V25H31.9905ZM32.9905 27.4H22.3505V29.4H32.9905V27.4ZM22.3505 27.4C21.3549 27.4 20.4344 27.6433 19.6205 28.152L20.6805 29.848C21.1465 29.5567 21.6927 29.4 22.3505 29.4V27.4ZM19.6205 28.152C18.8361 28.6423 18.2124 29.2999 17.758 30.1114L19.503 31.0886C19.7952 30.5667 20.1849 30.1577 20.6805 29.848L19.6205 28.152ZM17.7667 30.0961C17.2941 30.9062 17.0705 31.8173 17.0705 32.8H19.0705C19.0705 32.1294 19.2201 31.5738 19.4942 31.1039L17.7667 30.0961ZM17.0705 32.8C17.0705 33.7423 17.3002 34.6241 17.7667 35.4239L19.4942 34.4161C19.2141 33.9359 19.0705 33.4044 19.0705 32.8H17.0705ZM17.7825 35.45C18.2688 36.2281 18.9181 36.8587 19.716 37.3375L20.745 35.6225C20.2095 35.3013 19.7922 34.8919 19.4785 34.39L17.7825 35.45ZM19.7419 37.3525C20.5649 37.8134 21.4677 38.04 22.4305 38.04V36.04C21.7932 36.04 21.2293 35.8932 20.7191 35.6075L19.7419 37.3525ZM22.4305 38.04H31.5105V36.04H22.4305V38.04ZM30.5105 37.04V40.44H32.5105V37.04H30.5105ZM31.5105 39.44H22.7105V41.44H31.5105V39.44ZM22.7105 39.44C21.5659 39.44 20.5213 39.7048 19.6177 40.2738L20.6833 41.9662C21.2196 41.6285 21.8817 41.44 22.7105 41.44V39.44ZM19.6264 40.2683C18.7851 40.7861 18.1186 41.4862 17.6363 42.3544L19.3846 43.3256C19.7023 42.7538 20.1292 42.3073 20.6746 41.9717L19.6264 40.2683ZM17.63 42.3659C17.1769 43.2073 16.9505 44.1173 16.9505 45.08H18.9505C18.9505 44.4427 19.0974 43.8593 19.3909 43.3141L17.63 42.3659ZM16.9505 45.08C16.9505 46.0427 17.1769 46.9527 17.63 47.7941L19.3909 46.8459C19.0974 46.3007 18.9505 45.7173 18.9505 45.08H16.9505ZM17.63 47.7941C18.0897 48.6479 18.7484 49.336 19.5864 49.8517L20.6346 48.1483C20.0859 47.8107 19.6779 47.3788 19.3909 46.8459L17.63 47.7941ZM19.6107 49.8662C20.4796 50.3675 21.4711 50.6 22.5505 50.6V48.6C21.7632 48.6 21.128 48.4325 20.6102 48.1338L19.6107 49.8662ZM22.5505 50.6H32.9905V48.6H22.5505V50.6ZM31.9905 49.6V53H33.9905V49.6H31.9905ZM32.9905 52H22.0305V54H32.9905V52Z" fill="white" fill-opacity="0.8"/>
</g>
<g filter="url(#filter2_d_165_33)">
<path d="M53.6942 38.2692L52.3478 39.6157L63.5015 50.7693L61.2708 53L50.1171 41.8464L38.9634 53L36.7326 50.7693L51.4633 36.0385C50.5365 33.7404 51.4946 30.4305 54.0209 27.9042C57.1009 24.8242 61.3456 24.0751 63.5015 26.2311C65.6575 28.3872 64.9086 32.6318 61.8284 35.7118C59.3021 38.2381 55.9923 39.1962 53.6942 38.2692ZM37.848 25.1158L48.4441 35.7118L43.9825 40.1733L37.848 34.0388C35.384 31.5747 35.384 27.5798 37.848 25.1158ZM59.5977 33.4811C61.5809 31.498 61.9898 29.1808 61.2708 28.4619C60.5519 27.7429 58.2347 28.1519 56.2516 30.1349C54.2685 32.118 53.8597 34.4352 54.5787 35.1541C55.2975 35.873 57.6146 35.4642 59.5977 33.4811Z" fill="#F58220" shape-rendering="crispEdges"/>
<path d="M53.6942 38.2692L52.3478 39.6157L63.5015 50.7693L61.2708 53L50.1171 41.8464L38.9634 53L36.7326 50.7693L51.4633 36.0385C50.5365 33.7404 51.4946 30.4305 54.0209 27.9042C57.1009 24.8242 61.3456 24.0751 63.5015 26.2311C65.6575 28.3872 64.9086 32.6318 61.8284 35.7118C59.3021 38.2381 55.9923 39.1962 53.6942 38.2692ZM37.848 25.1158L48.4441 35.7118L43.9825 40.1733L37.848 34.0388C35.384 31.5747 35.384 27.5798 37.848 25.1158ZM59.5977 33.4811C61.5809 31.498 61.9898 29.1808 61.2708 28.4619C60.5519 27.7429 58.2347 28.1519 56.2516 30.1349C54.2685 32.118 53.8597 34.4352 54.5787 35.1541C55.2975 35.873 57.6146 35.4642 59.5977 33.4811Z" stroke="white" stroke-opacity="0.8" stroke-width="2" shape-rendering="crispEdges"/>
</g>
<defs>
<filter id="filter0_d_165_33" x="0" y="0" width="78" height="78" filterUnits="userSpaceOnUse" color-interpolation-filters="sRGB">
<feFlood flood-opacity="0" result="BackgroundImageFix"/>
<feColorMatrix in="SourceAlpha" type="matrix" values="0 0 0 0 0 0 0 0 0 0 0 0 0 0 0 0 0 0 127 0" result="hardAlpha"/>
<feOffset/>
<feGaussianBlur stdDeviation="2"/>
<feComposite in2="hardAlpha" operator="out"/>
<feColorMatrix type="matrix" values="0 0 0 0 1 0 0 0 0 0.678218 0 0 0 0 0.404004 0 0 0 1 0"/>
<feBlend mode="normal" in2="BackgroundImageFix" result="effect1_dropShadow_165_33"/>
<feBlend mode="normal" in="SourceGraphic" in2="effect1_dropShadow_165_33" result="shape"/>
</filter>
<filter id="filter1_d_165_33" x="11.1505" y="23" width="24.84" height="34" filterUnits="userSpaceOnUse" color-interpolation-filters="sRGB">
<feFlood flood-opacity="0" result="BackgroundImageFix"/>
<feColorMatrix in="SourceAlpha" type="matrix" values="0 0 0 0 0 0 0 0 0 0 0 0 0 0 0 0 0 0 127 0" result="hardAlpha"/>
<feOffset dy="1"/>
<feGaussianBlur stdDeviation="1.5"/>
<feComposite in2="hardAlpha" operator="out"/>
<feColorMatrix type="matrix" values="0 0 0 0 1 0 0 0 0 0.896404 0 0 0 0 0.808122 0 0 0 1 0"/>
<feBlend mode="normal" in2="BackgroundImageFix" result="effect1_dropShadow_165_33"/>
<feBlend mode="normal" in="SourceGraphic" in2="effect1_dropShadow_165_33" result="shape"/>
</filter>
<filter id="filter2_d_165_33" x="32" y="21.7016" width="36.7321" height="36.7127" filterUnits="userSpaceOnUse" color-interpolation-filters="sRGB">
<feFlood flood-opacity="0" result="BackgroundImageFix"/>
<feColorMatrix in="SourceAlpha" type="matrix" values="0 0 0 0 0 0 0 0 0 0 0 0 0 0 0 0 0 0 127 0" result="hardAlpha"/>
<feOffset dy="1"/>
<feGaussianBlur stdDeviation="1.5"/>
<feComposite in2="hardAlpha" operator="out"/>
<feColorMatrix type="matrix" values="0 0 0 0 1 0 0 0 0 0.896404 0 0 0 0 0.808122 0 0 0 1 0"/>
<feBlend mode="normal" in2="BackgroundImageFix" result="effect1_dropShadow_165_33"/>
<feBlend mode="normal" in="SourceGraphic" in2="effect1_dropShadow_165_33" result="shape"/>
</filter>
</defs>
</svg>
